<svg xmlns="http://www.w3.org/2000/svg" viewBox="0 0 32 32">
  <defs>
    <linearGradient id="a" x1="2107.45" x2="2117.67" y1="2105.73" y2="2105.73" gradientTransform="translate(-2098.54 -2101.68)" gradientUnits="userSpaceOnUse">
      <stop offset="0" stop-opacity="0"/>
      <stop offset="0.8"/>
    </linearGradient>
    <mask id="b" width="32" height="32" x="0" y="0" maskUnits="userSpaceOnUse">
      <path fill="#fff" d="M4 3h24a2 2 0 0 1 2 2v16a2 2 0 0 1-2 2h-8v4h4v2H8v-2h4v-4H4a2 2 0 0 1-2-2V5a2 2 0 0 1 2-2Zm10 24h4v-4h-4ZM4 21h24V5H4Z"/>
      <path d="M19.06 1.21h11.27v13.8H19.06z"/>
      <path fill="url(#a)" d="M8.91 1.99h10.22v4.14H8.91z"/>
    </mask>
    <linearGradient id="c" x2="32" y1="32" gradientUnits="userSpaceOnUse">
      <stop offset="0.1" stop-color="#a56eff"/>
      <stop offset="0.9" stop-color="#0f62fe"/>
    </linearGradient>
  </defs>
  <g mask="url(#b)">
    <path fill="url(#c)" d="M0 0h32v32H0z"/>
  </g>
  <path fill="#001d6c" d="m24 14-2.14-1A5 5 0 0 1 19 8.49V2h10v6.49A5 5 0 0 1 26.13 13ZM21 4v4.49a3 3 0 0 0 1.72 2.71l1.28.61 1.28-.61A3 3 0 0 0 27 8.49V4Z"/>
</svg>